<?xml version="1.0" standalone="no"?>
<!DOCTYPE svg PUBLIC "-//W3C//DTD SVG 20010904//EN"
 "http://www.w3.org/TR/2001/REC-SVG-20010904/DTD/svg10.dtd">
<svg version="1.0" xmlns="http://www.w3.org/2000/svg"
 width="292.000000pt" height="172.000000pt" viewBox="0 0 292.000000 172.000000"
 preserveAspectRatio="xMidYMid meet">

<g transform="translate(0.000000,172.000000) scale(0.100000,-0.100000)"
fill="#000000" stroke="none">
<path d="M0 1583 c0 -93 3 -133 10 -123 5 8 10 11 10 6 0 -5 9 3 21 18 11 14
17 30 14 36 -3 6 4 24 16 41 17 24 20 39 16 72 -3 22 -3 36 1 30 7 -11 128
-109 149 -121 6 -4 13 -22 15 -39 3 -31 4 -32 28 -20 16 8 28 26 34 51 9 34 8
40 -13 56 -13 9 -21 22 -18 27 4 6 0 16 -8 23 -16 13 -20 31 -7 29 28 -5 32 2
15 26 -18 24 -21 24 -150 25 l-133 0 0 -137z"/>
<path d="M305 1700 c10 -11 23 -20 28 -20 6 0 2 9 -8 20 -10 11 -23 20 -28 20
-6 0 -2 -9 8 -20z"/>
<path d="M348 1704 c13 -9 21 -22 19 -28 -4 -9 3 -11 19 -8 15 3 24 11 24 22
0 20 -19 30 -58 30 l-26 0 22 -16z"/>
<path d="M459 1699 c13 -10 31 -19 40 -19 14 1 14 2 -2 11 -9 6 -16 13 -13 17
2 4 -8 8 -22 9 l-27 1 24 -19z"/>
<path d="M552 1705 c-11 -12 -10 -15 3 -15 8 0 15 7 15 15 0 18 -2 18 -18 0z"/>
<path d="M773 1706 c-4 -7 -17 -18 -28 -25 -17 -10 -11 -11 34 -7 30 3 60 1
66 -4 8 -7 21 -3 40 12 l27 21 -7 -24 c-4 -13 -8 -28 -9 -34 0 -5 -5 -14 -11
-18 -5 -5 4 -6 20 -2 29 6 58 31 68 58 2 6 7 9 11 6 4 -4 0 -23 -8 -43 -13
-31 -13 -36 0 -36 7 0 14 -5 14 -11 0 -6 7 -9 15 -5 8 3 15 4 15 2 0 -2 -18
-42 -41 -89 -22 -47 -43 -103 -46 -125 -5 -35 -3 -39 18 -38 17 1 24 -6 31
-32 9 -35 -7 -116 -21 -107 -5 2 -14 -2 -21 -10 -8 -9 -8 -15 -2 -15 11 0 11
-18 -1 -37 -17 -27 13 -11 52 28 45 45 49 51 26 43 -8 -4 -15 -1 -15 4 0 6 9
13 19 17 11 3 30 20 43 36 13 17 29 37 35 44 7 7 9 15 4 17 -5 2 -2 19 6 38 9
19 15 41 14 48 -2 15 25 16 34 2 5 -8 12 -7 23 2 15 11 15 11 5 -3 -9 -11 -9
-19 -2 -26 7 -7 4 -21 -10 -44 -12 -19 -21 -43 -21 -54 0 -18 2 -18 21 5 11
14 29 44 39 68 23 49 43 57 30 11 -8 -27 -7 -29 6 -18 40 33 94 15 94 -31 0
-30 -1 -30 -55 -30 -42 0 -55 -3 -55 -15 0 -14 14 -18 70 -18 15 0 18 -2 8 -4
-29 -7 -20 -23 12 -23 39 0 38 -13 -7 -58 -20 -20 -33 -30 -28 -22 8 13 7 13
-8 1 -25 -20 -75 2 -57 24 10 13 9 15 -10 15 -17 0 -21 4 -15 18 4 9 10 36 12
59 3 26 10 40 16 36 6 -3 7 -1 3 6 -5 8 -19 2 -47 -21 l-39 -33 3 -88 2 -89
-22 49 c-13 26 -23 58 -23 71 0 43 -16 21 -29 -39 -9 -45 -21 -71 -46 -98 -18
-20 -45 -49 -59 -66 -32 -38 -47 -25 -17 16 12 17 20 37 17 44 -3 9 0 12 10 8
10 -4 12 0 7 13 -4 12 -3 15 6 10 6 -4 10 -3 9 3 -2 6 11 22 27 36 42 37 9 19
-45 -24 -61 -49 -61 -50 -57 -103 2 -26 1 -45 -3 -43 -5 3 -11 -6 -14 -20 -8
-33 -28 -33 -21 0 3 14 8 37 11 52 6 31 7 31 -26 -17 -16 -23 -18 -30 -7 -21
9 7 17 10 17 7 0 -15 -21 -46 -31 -46 -6 0 -7 4 -4 10 3 6 -1 7 -9 4 -10 -4
-19 2 -25 18 -35 90 -47 111 -69 119 -14 5 -27 7 -30 4 -3 -3 0 -5 7 -5 9 0
11 -8 6 -27 -4 -16 -8 -37 -9 -48 -1 -18 -8 -20 -92 -20 -97 0 -136 -14 -113
-41 6 -8 20 -14 30 -14 11 0 19 -4 19 -9 0 -5 11 -12 25 -15 14 -4 25 -11 25
-16 0 -6 11 -10 25 -10 14 0 24 5 22 12 -1 7 8 14 21 16 12 2 22 -1 22 -6 0
-13 -46 -32 -77 -32 -19 0 -24 -4 -19 -16 3 -9 6 -18 6 -20 0 -9 32 -3 53 10
12 8 34 14 49 14 l27 -1 -22 -40 c-12 -22 -30 -55 -40 -73 -9 -19 -21 -34 -26
-34 -5 0 -12 -7 -15 -16 -5 -12 -2 -15 10 -10 12 5 14 1 8 -17 -14 -46 -34
-75 -78 -110 -24 -20 -47 -37 -50 -37 -4 0 -25 -9 -49 -19 -23 -11 -55 -22
-72 -25 l-30 -7 33 20 c17 12 32 24 32 28 0 4 -5 2 -12 -5 -14 -14 -28 -16
-28 -3 0 5 9 13 20 16 35 11 11 25 -43 26 -29 1 -63 4 -76 8 -24 7 -9 11 149
41 30 6 62 15 70 21 12 8 9 9 -11 5 -21 -5 -30 0 -44 20 -17 26 -15 41 4 29 6
-3 11 -12 11 -19 0 -16 45 -10 73 9 17 12 17 14 1 30 -11 11 -24 14 -38 10
-12 -4 -33 -8 -48 -9 -15 0 -33 -7 -40 -14 -34 -34 -131 0 -168 60 l-19 32 -9
-25 c-6 -14 -17 -31 -26 -38 -28 -23 -19 11 14 57 30 42 30 46 -3 42 -14 -1
-18 5 -17 22 3 38 1 50 -10 43 -5 -3 -10 -2 -10 3 0 18 13 20 29 5 15 -16 16
-15 19 5 2 12 8 22 14 22 5 0 7 7 4 16 -3 9 -2 12 5 9 5 -4 21 1 35 10 42 27
38 10 -6 -27 -40 -35 -51 -52 -27 -42 9 3 12 -6 11 -33 -1 -24 8 -53 23 -80
23 -40 25 -41 86 -46 72 -4 108 13 114 55 3 23 -1 27 -24 30 -25 3 -29 9 -37
50 -11 55 13 185 24 138 6 -21 8 -19 13 18 18 114 19 122 7 122 -8 0 -11 10
-7 30 4 16 0 51 -8 77 -19 63 -19 133 1 183 9 23 14 43 11 46 -7 7 -132 -59
-168 -88 -19 -15 -15 -14 18 4 47 26 58 22 44 -15 -10 -26 -50 -52 -103 -68
-34 -9 -36 3 -9 48 l20 31 -32 -9 c-18 -5 -35 -9 -38 -9 -7 0 -4 38 6 69 7 24
-2 26 -26 8 -21 -16 -34 -89 -20 -115 9 -17 5 -25 -21 -51 -52 -51 -92 -54
-70 -6 10 23 9 25 -11 25 -12 0 -30 -7 -39 -14 -16 -12 -18 -58 -18 -639 l0
-627 974 0 974 0 -5 48 -4 47 20 -45 19 -45 123 -3 c67 -1 135 2 151 7 17 6
30 6 33 0 4 -5 135 -9 321 -9 l314 0 0 115 c0 96 -3 115 -15 115 -8 0 -15 4
-15 9 0 5 7 14 15 21 23 19 18 25 -23 26 -20 1 -73 9 -117 17 -47 9 -87 12
-96 7 -8 -5 -71 -14 -139 -20 -68 -6 -125 -11 -126 -13 -2 -1 9 -35 23 -74 28
-80 26 -123 -7 -123 -11 0 -20 5 -20 10 0 6 -6 10 -14 10 -8 0 -17 7 -20 16
-5 13 -1 15 18 12 21 -4 24 -2 16 12 -5 10 -22 29 -38 42 -16 13 -34 33 -41
43 -11 18 -11 18 -5 -4 5 -21 3 -23 -15 -18 -27 7 -26 1 2 -32 12 -15 29 -25
36 -23 8 3 11 0 7 -7 -4 -6 2 -26 13 -45 21 -33 28 -66 14 -66 -5 0 -30 27
-57 60 -28 33 -53 60 -58 60 -4 0 -8 8 -8 18 -1 22 -30 -57 -30 -81 0 -11 -4
-15 -12 -11 -8 5 -9 2 -5 -10 4 -10 7 -20 7 -22 0 -2 7 -4 16 -4 20 0 13 -24
-9 -28 -10 -2 -22 9 -32 28 -9 18 -19 29 -23 26 -3 -4 -1 -11 5 -17 6 -6 9
-17 6 -24 -3 -10 -9 -10 -22 3 -10 9 -16 20 -14 24 2 4 -5 18 -16 30 -15 16
-21 18 -21 7 0 -8 5 -20 12 -27 9 -9 9 -12 0 -12 -7 0 -18 11 -24 25 -6 14
-23 30 -38 37 -19 8 -26 17 -22 30 6 26 -11 22 -38 -9 l-23 -27 -10 25 c-5 14
-11 19 -14 11 -3 -9 -12 -7 -33 8 -16 11 -32 20 -37 19 -21 -4 -33 2 -33 16 0
8 -4 15 -10 15 -5 0 -10 -5 -10 -11 0 -5 -5 -7 -10 -4 -6 4 -8 11 -5 16 4 5 1
9 -4 9 -6 0 -11 -5 -11 -11 0 -5 -4 -8 -9 -5 -5 4 -12 0 -14 -6 -4 -10 -6 -10
-6 0 -2 22 -27 12 -38 -15 l-11 -28 -1 33 c-1 35 -21 36 -21 1 0 -11 -4 -17
-10 -14 -5 3 -10 25 -10 48 0 70 -8 83 -58 103 -26 9 -52 25 -59 34 -7 10 -26
23 -43 30 -16 7 -30 18 -30 25 0 8 -13 16 -29 20 -16 3 -32 13 -35 21 -3 8
-10 14 -16 14 -6 0 -9 -4 -6 -9 3 -5 -3 -11 -13 -14 -15 -3 -18 -1 -14 11 5
11 2 14 -9 9 -9 -3 -23 2 -33 13 -10 11 -22 17 -27 14 -16 -10 9 31 28 47 10
8 15 9 11 3 -3 -6 1 -11 9 -11 13 0 13 2 0 15 -12 12 -9 22 26 73 22 32 45 56
51 52 5 -3 7 -2 4 4 -3 5 13 31 36 56 l42 47 33 -16 c18 -9 30 -19 27 -22 -2
-3 0 -11 6 -19 14 -17 -3 -17 -20 0 -7 6 -11 8 -10 2 6 -20 -12 -83 -26 -95
-8 -7 -12 -17 -8 -24 3 -6 3 -8 -2 -4 -11 10 -47 -50 -39 -63 3 -6 13 -8 21
-4 14 5 14 3 2 -12 -12 -15 -12 -16 5 -10 15 6 17 4 13 -13 -3 -11 -1 -20 4
-20 5 0 9 -5 9 -11 0 -16 23 -34 45 -35 63 -5 90 -13 93 -27 4 -21 29 -29 53
-17 19 11 20 10 23 -10 2 -18 29 -30 69 -30 l37 0 -40 51 c-22 28 -40 55 -40
59 0 5 -3 15 -6 24 -3 9 -1 16 5 16 6 0 11 -4 11 -9 0 -5 17 -26 37 -46 34
-34 41 -37 110 -41 l73 -4 0 26 c0 39 -39 164 -51 164 -6 0 -7 6 -3 13 5 8 2
7 -9 -2 -10 -8 -21 -11 -25 -7 -4 4 1 12 11 17 23 13 22 29 -4 29 -12 0 -17
-4 -13 -11 4 -8 -1 -9 -15 -4 -12 4 -28 2 -35 -5 -8 -6 -36 -13 -63 -17 -41
-4 -51 -2 -56 11 -6 14 -3 16 13 11 12 -4 20 -2 20 5 0 6 -4 9 -9 5 -5 -3 -16
4 -24 16 -8 11 -18 16 -21 11 -3 -6 -1 -12 5 -14 21 -7 -17 -77 -42 -78 -4 0
-12 13 -19 29 -6 16 -21 38 -32 48 -11 10 -24 26 -29 35 -8 14 -6 16 8 11 17
-7 17 -5 -1 21 -10 16 -13 25 -7 21 19 -11 3 56 -21 90 -18 24 -18 27 -3 15
17 -14 18 -13 11 15 -3 17 -9 47 -13 68 -8 51 -19 55 -37 12 -8 -19 -19 -35
-23 -35 -19 1 -45 29 -37 41 5 9 2 10 -9 6 -27 -10 -20 4 26 46 23 22 36 37
30 33 -8 -5 -13 -1 -13 9 0 14 6 16 26 11 40 -11 74 -39 68 -58 -3 -9 5 -31
16 -50 l21 -33 -6 32 c-3 17 -2 33 2 36 5 3 7 35 6 71 0 36 3 68 8 72 5 3 9
-1 9 -9 0 -8 7 -17 15 -21 13 -5 13 -3 0 18 -8 12 -12 26 -8 31 5 4 -3 4 -17
0 -22 -6 -23 -5 -9 6 22 19 33 63 13 55 -16 -6 -17 0 -4 29 7 17 9 17 9 3 1
-10 7 -18 15 -18 10 0 12 -7 8 -22 -4 -18 -2 -20 16 -16 12 4 19 2 16 -3 -3
-6 17 -7 49 -3 49 6 56 4 71 -17 9 -13 16 -18 16 -12 0 6 14 16 30 23 17 7 30
18 30 25 0 8 11 22 25 33 14 11 25 23 25 27 0 4 -7 2 -15 -5 -9 -8 -15 -8 -15
-2 0 6 9 14 21 17 16 5 19 12 14 28 -14 47 -23 87 -18 87 2 0 18 -7 34 -16 29
-15 30 -14 25 3 -3 10 -1 25 4 33 8 12 10 12 11 -5 1 -11 1 -26 0 -32 -3 -18
28 -16 35 2 4 8 10 12 15 9 5 -3 8 7 7 23 -2 15 1 58 6 95 7 60 6 75 -15 125
-13 31 -23 72 -23 90 l0 33 -78 0 c-67 0 -78 -2 -79 -17 0 -16 -2 -15 -10 2
-7 15 -8 9 -4 -20 4 -27 3 -35 -4 -26 -7 11 -10 8 -14 -15 -2 -18 -5 -9 -6 24
0 28 -5 52 -9 52 -5 0 -15 -26 -23 -57 -11 -47 -14 -53 -19 -33 -7 30 -16 18
-29 -43 -12 -51 -4 -127 10 -92 6 19 8 18 17 -5 l11 -25 0 28 c1 28 21 39 21
11 0 -8 4 -13 9 -10 13 9 21 -20 15 -53 -4 -18 -1 -32 7 -36 7 -5 10 -4 6 2
-3 5 3 17 14 26 11 10 17 22 14 27 -3 6 1 7 9 4 9 -3 16 -17 16 -30 0 -13 5
-24 10 -24 6 0 10 4 10 9 0 6 9 9 19 8 16 -1 18 -5 10 -20 -7 -12 -17 -16 -30
-12 -22 7 -24 -2 -9 -41 9 -21 7 -29 -7 -41 -34 -27 -122 -64 -172 -72 -55 -9
-75 -2 -107 37 -21 25 -23 26 -70 13 -87 -22 -104 -24 -122 -10 -9 7 -3 -2 13
-20 l30 -34 -41 22 c-30 17 -48 37 -67 77 -35 71 -36 98 -2 92 25 -5 36 7 14
14 -7 2 -9 13 -5 26 7 20 12 21 65 16 45 -5 67 -2 103 14 25 11 60 23 78 27
19 4 35 15 39 28 11 29 7 35 -40 54 -22 8 -49 29 -60 45 -19 27 -23 28 -38 14
-10 -9 -28 -16 -42 -16 -18 -1 -13 -5 22 -19 53 -21 109 -53 109 -62 0 -14
-33 -19 -116 -19 -68 0 -84 -3 -84 -15 0 -16 -27 -20 -48 -6 -10 6 -8 10 9 14
13 4 20 9 16 13 -3 4 5 15 18 26 21 16 23 22 13 38 -10 16 -15 17 -28 6 -18
-15 -42 -15 -47 0 -5 16 42 37 72 32 l26 -5 -21 22 c-11 12 -17 25 -13 29 5 4
-13 5 -40 1 -41 -6 -46 -5 -41 9 5 12 0 16 -20 16 -15 0 -29 -6 -32 -13 -3 -8
-12 -14 -20 -14 -8 0 -13 6 -10 14 5 11 -8 13 -59 12 -35 -1 -62 -5 -60 -9 5
-7 -38 -30 -57 -30 -5 0 -8 6 -5 14 9 22 -12 25 -158 25 -100 0 -136 -3 -142
-13z m434 -82 c-3 -3 -12 -4 -19 -1 -8 3 -5 6 6 6 11 1 17 -2 13 -5z m111 -6
c-5 -16 -48 -24 -48 -10 0 11 17 20 38 21 8 1 12 -5 10 -11z m-253 -48 c-3 -5
-1 -10 5 -10 8 0 8 -6 0 -22 -10 -20 -7 -19 14 5 39 42 47 32 21 -25 -17 -37
-25 -71 -25 -110 0 -48 -3 -59 -21 -68 -29 -16 -48 -6 -64 33 -10 23 -11 45
-5 71 12 56 31 97 41 90 5 -3 9 0 9 6 0 6 5 8 12 4 7 -5 9 -2 5 8 -3 9 -3 19
0 22 10 10 15 7 8 -4z m895 -76 c-7 -31 -13 -54 -14 -52 -2 2 -1 34 2 72 3 50
7 64 14 52 6 -10 5 -37 -2 -72z m41 40 c-5 -16 -10 -21 -10 -12 -1 18 10 51
15 45 2 -1 -1 -16 -5 -33z m-104 -36 c-3 -7 -5 -2 -5 12 0 14 2 19 5 13 2 -7
2 -19 0 -25z m113 -16 c0 -10 -7 -19 -15 -19 -18 0 -19 9 -3 25 16 16 18 15
18 -6z m-735 -11 c-3 -5 4 -12 14 -16 13 -4 18 -12 14 -21 -4 -12 -8 -11 -20
6 -9 13 -21 19 -32 16 -12 -5 -11 -2 3 9 23 17 30 19 21 6z m66 -18 c-12 -20
-14 -14 -5 12 4 9 9 14 11 11 3 -2 0 -13 -6 -23z m644 -52 c-8 -17 -20 -31
-26 -31 -6 0 -1 12 10 26 12 15 21 34 22 43 0 9 3 11 5 4 3 -6 -2 -25 -11 -42z
m-945 -131 c0 -11 -4 -20 -9 -20 -7 0 -8 17 -2 38 4 10 11 -2 11 -18z m562
-45 c-2 -14 -11 -25 -18 -25 -8 0 -35 -27 -60 -59 -30 -39 -55 -61 -72 -64
-15 -3 -28 -5 -28 -4 -1 1 1 23 5 49 6 34 16 55 39 76 17 16 34 27 36 24 3 -3
12 1 20 7 8 7 24 10 36 6 11 -4 20 -2 20 4 0 6 6 11 14 11 9 0 12 -8 8 -25z
m-632 -44 c0 -6 -4 -12 -8 -15 -5 -3 -9 1 -9 9 0 8 4 15 9 15 4 0 8 -4 8 -9z
m450 -10 c0 -6 -5 -13 -11 -17 -8 -4 -7 -9 2 -14 10 -7 10 -11 0 -24 -7 -9
-17 -13 -22 -10 -5 3 -9 0 -9 -6 0 -6 -4 -9 -10 -5 -5 3 -18 -3 -29 -14 -20
-20 -20 -20 -23 7 -2 21 6 34 35 60 38 31 67 41 67 23z m-1099 -73 c3 -38 -6
-67 -34 -105 -18 -23 -37 -43 -43 -43 -28 0 -27 108 2 140 17 20 74 25 75 8z
m763 -23 c-7 -19 -14 -50 -14 -69 0 -21 -6 -36 -15 -40 -8 -3 -15 -1 -15 5 0
6 -7 9 -15 5 -21 -8 -19 4 8 33 21 24 20 24 -17 -3 -31 -24 -36 -25 -27 -8 13
24 93 111 103 112 4 0 0 -16 -8 -35z m536 14 c0 -4 -9 -11 -20 -14 -11 -3 -20
-13 -20 -22 0 -13 -3 -13 -15 -3 -20 17 -19 25 7 37 27 12 48 13 48 2z m-410
-89 c0 -5 -4 -10 -10 -10 -5 0 -10 5 -10 10 0 6 5 10 10 10 6 0 10 -4 10 -10z
m94 -38 c-4 -25 -11 -39 -18 -36 -20 8 -50 -21 -43 -41 7 -16 9 -16 30 -3 12
9 27 25 34 38 l11 23 26 -28 c28 -30 31 -40 16 -50 -6 -3 -13 2 -17 11 -5 13
-9 8 -18 -22 -10 -32 -9 -43 3 -59 8 -11 -3 -2 -25 20 -22 22 -48 45 -58 50
-17 11 -42 57 -27 52 4 -1 9 1 10 5 6 11 77 85 80 83 1 -1 0 -21 -4 -43z
m-138 -6 c-3 -27 -78 -112 -106 -119 -10 -3 -17 0 -15 7 11 42 18 54 31 49 9
-3 14 2 14 13 0 16 2 17 11 4 6 -8 12 -11 15 -5 8 20 44 75 48 75 3 0 3 -11 2
-24z m34 17 c0 -17 -19 -37 -27 -29 -4 5 -2 11 5 13 6 3 10 9 6 14 -3 5 0 9 5
9 6 0 11 -3 11 -7z m-495 -32 c10 -17 -11 -21 -31 -6 -18 14 -18 14 3 15 12 0
24 -4 28 -9z m-98 -27 c-3 -3 -12 -4 -19 -1 -8 3 -5 6 6 6 11 1 17 -2 13 -5z
m569 -41 c-8 -15 -15 -22 -16 -15 0 14 22 53 28 47 2 -2 -3 -16 -12 -32z
m-366 -13 c0 -5 -2 -10 -4 -10 -3 0 -8 5 -11 10 -3 6 -1 10 4 10 6 0 11 -4 11
-10z m-647 -11 c-6 -6 -9 -18 -6 -25 3 -8 1 -14 -5 -14 -5 0 -12 9 -15 20 -3
11 -1 18 4 14 5 -3 9 0 9 5 0 6 5 11 12 11 9 0 9 -3 1 -11z m1030 -27 c-22 -5
-27 6 -12 24 12 15 14 14 20 -3 4 -12 1 -19 -8 -21z m-313 -48 c0 -14 3 -14
15 -4 8 7 15 9 16 4 0 -5 4 0 9 11 8 17 8 16 7 -7 -1 -16 -4 -28 -8 -28 -8 0
-23 -59 -20 -79 1 -7 -2 -10 -8 -6 -6 3 -11 -1 -11 -10 0 -9 4 -14 9 -10 11 6
18 -29 13 -60 -2 -11 -12 -31 -22 -45 -15 -20 -21 -22 -33 -12 -35 29 -47 155
-22 237 10 34 11 54 4 69 -7 13 1 9 20 -12 17 -18 31 -40 31 -48z m-108 -19
c-13 -58 -13 -83 -4 -147 13 -87 43 -155 74 -167 18 -7 19 -9 5 -14 -10 -4
-17 -14 -17 -23 0 -24 -68 -149 -96 -175 -31 -29 -55 -13 -32 20 8 12 18 18
21 14 4 -3 7 -2 7 4 0 13 36 54 42 48 2 -3 9 11 15 30 7 23 8 33 1 29 -6 -4
-8 1 -3 15 5 16 3 20 -9 15 -8 -3 -18 -14 -21 -25 -4 -10 -12 -25 -19 -31 -6
-7 -22 -29 -33 -48 -29 -47 -63 -86 -63 -72 0 6 4 13 9 17 9 5 41 62 41 72 0
13 -19 -2 -34 -27 -9 -17 -21 -28 -26 -25 -4 3 -10 2 -12 -2 -6 -15 -58 -56
-58 -47 0 5 40 52 90 104 49 51 89 95 87 95 -1 1 -14 5 -28 9 -19 4 -29 1 -33
-9 -3 -8 -12 -15 -20 -15 -8 0 -18 -9 -21 -20 -3 -11 -11 -20 -16 -20 -5 0 -9
-6 -9 -12 0 -7 -14 -22 -30 -33 -16 -11 -30 -23 -30 -27 0 -5 -11 -8 -23 -8
-13 0 -34 -9 -47 -20 -25 -22 -40 -26 -40 -10 0 6 5 10 12 10 6 0 8 3 5 6 -3
4 14 32 38 63 25 32 45 63 45 69 0 7 6 12 13 12 9 0 9 2 0 8 -9 6 2 21 37 52
27 24 46 48 43 53 -3 6 -2 7 4 4 5 -3 22 10 38 29 23 28 30 47 32 86 1 28 6
55 12 61 6 6 11 20 11 30 0 15 51 100 57 94 1 -1 -6 -33 -15 -72z m598 40 c7
-9 8 -15 2 -15 -5 0 -12 7 -16 15 -3 8 -4 15 -2 15 2 0 9 -7 16 -15z m-430
-75 c0 -5 -5 -10 -11 -10 -5 0 -7 5 -4 10 3 6 8 10 11 10 2 0 4 -4 4 -10z
m-605 -70 c3 -5 1 -10 -4 -10 -6 0 -11 5 -11 10 0 6 2 10 4 10 3 0 8 -4 11
-10z m468 -62 c6 -4 8 -10 4 -15 -12 -11 -27 18 -25 47 l1 25 4 -25 c3 -14 10
-28 16 -32z m137 3 c0 -5 3 -17 7 -27 4 -11 3 -15 -4 -11 -14 9 -24 47 -12 47
5 0 9 -4 9 -9z m790 -31 c-27 -21 -40 -25 -40 -12 0 15 24 32 45 32 19 0 18
-2 -5 -20z m155 0 c3 -5 1 -10 -4 -10 -6 0 -11 5 -11 10 0 6 2 10 4 10 3 0 8
-4 11 -10z m-1285 -50 c-13 -24 -65 -53 -88 -48 -12 3 -2 14 33 36 58 37 70
39 55 12z m-186 -85 c-10 -8 -23 -14 -29 -14 -5 0 -1 6 9 14 11 8 24 15 30 15
5 0 1 -7 -10 -15z m461 -61 c-3 -24 -11 -44 -17 -44 -5 0 -7 8 -4 17 4 9 10
38 14 63 3 25 8 37 10 26 2 -10 1 -38 -3 -62z m-519 31 c-20 -15 -36 -19 -36
-10 0 5 38 23 50 24 3 0 -4 -6 -14 -14z m568 -12 c-10 -40 -14 -41 -14 -5 0
18 5 32 10 32 6 0 8 -11 4 -27z m-69 -111 c-6 -4 -19 -27 -30 -52 -29 -67 -58
-115 -63 -102 -2 6 13 41 32 78 47 87 45 84 59 84 8 0 8 -3 2 -8z m-145 -76
c0 -2 -8 -10 -17 -17 -16 -13 -17 -12 -4 4 13 16 21 21 21 13z m-40 -30 c0 -2
-8 -10 -17 -17 -16 -13 -17 -12 -4 4 13 16 21 21 21 13z m1103 -77 c-6 -6 -10
1 -10 23 0 30 1 30 10 10 7 -15 7 -26 0 -33z m-207 3 c-4 -3 -14 2 -24 12 -16
18 -16 18 6 6 13 -6 21 -14 18 -18z"/>
<path d="M861 591 c-14 -9 -12 -44 3 -45 5 -1 14 7 20 16 13 21 -3 41 -23 29z"/>
<path d="M643 472 c-10 -10 -38 -42 -63 -71 -25 -29 -58 -67 -73 -84 -15 -16
-25 -32 -23 -35 11 -10 140 104 189 166 29 37 3 58 -30 24z"/>
<path d="M1660 1711 c0 -18 17 -20 36 -6 18 14 18 14 -8 15 -16 0 -28 -4 -28
-9z"/>
<path d="M2385 1700 c10 -11 36 -25 57 -32 21 -6 38 -15 38 -21 0 -5 8 1 19
14 l18 23 14 -22 c8 -12 24 -22 36 -22 12 0 23 -5 25 -10 3 -10 37 -12 116 -9
19 1 21 3 10 18 -7 9 -8 13 -4 9 5 -4 15 -3 22 3 8 7 14 7 19 0 4 -7 15 -5 31
5 30 20 31 7 4 -46 -24 -47 -70 -96 -87 -92 -8 2 -10 -3 -6 -14 4 -12 3 -15
-5 -10 -7 4 -12 2 -12 -5 0 -6 8 -9 20 -6 11 3 18 2 15 -3 -7 -11 25 -71 41
-77 8 -3 14 -11 14 -19 0 -15 34 -37 44 -27 3 3 6 18 7 32 0 21 4 18 16 -18 9
-26 23 -46 34 -48 21 -6 25 -39 8 -63 -8 -11 -12 -12 -16 -2 -6 14 -33 16 -33
2 0 -5 11 -12 24 -16 23 -5 45 -49 31 -62 -3 -3 -5 2 -5 11 0 23 -13 21 -38
-6 -29 -30 -32 -107 -4 -108 10 0 12 -3 4 -6 -6 -2 -10 -8 -7 -12 2 -5 -14
-14 -36 -20 -51 -16 -47 -23 6 -11 22 5 49 9 60 9 l20 0 -20 -9 -20 -9 20 0
c17 -1 17 -3 5 -11 -13 -8 -12 -10 3 -10 13 0 17 -8 17 -34 0 -47 11 -96 21
-96 5 0 9 188 9 424 l0 424 -277 1 -277 2 19 -21z m290 0 c-3 -5 -10 -10 -16
-10 -5 0 -9 5 -9 10 0 6 7 10 16 10 8 0 12 -4 9 -10z m205 -640 c0 -5 -5 -10
-11 -10 -5 0 -7 5 -4 10 3 6 8 10 11 10 2 0 4 -4 4 -10z"/>
<path d="M300 1650 c-12 -8 -13 -11 -1 -19 9 -6 10 -10 2 -14 -7 -3 -7 -4 1
-3 7 2 12 11 10 21 -2 11 1 14 9 9 8 -4 10 -3 5 4 -9 14 -7 14 -26 2z"/>
<path d="M474 1652 c7 -12 -2 -14 -51 -15 -24 0 -30 -11 -12 -23 6 -3 9 -18 6
-33 l-5 -26 17 25 c9 14 26 35 39 47 16 15 20 23 11 29 -8 4 -9 3 -5 -4z"/>
<path d="M2585 1590 c3 -5 10 -10 16 -10 5 0 9 5 9 10 0 6 -7 10 -16 10 -8 0
-12 -4 -9 -10z"/>
<path d="M1712 1445 c-8 -29 -9 -42 0 -50 8 -7 9 -6 4 2 -3 6 -1 13 5 15 6 2
9 19 7 38 l-4 35 -12 -40z"/>
<path d="M1815 1450 c-17 -33 -19 -56 -6 -64 5 -4 8 2 6 11 -1 10 1 23 5 28 8
12 20 55 14 55 -2 0 -10 -13 -19 -30z"/>
<path d="M2080 1347 c0 -2 13 -18 30 -37 21 -24 27 -37 20 -45 -8 -9 -5 -14 9
-18 11 -3 22 -17 26 -36 5 -22 11 -31 21 -27 8 3 14 1 14 -3 0 -5 -6 -12 -12
-14 -7 -3 -3 -6 10 -6 27 -1 39 25 23 51 -8 13 -8 24 -1 38 9 17 5 22 -27 38
-21 11 -45 17 -53 14 -8 -2 -12 -1 -8 3 4 4 -2 16 -14 26 -19 17 -38 25 -38
16z"/>
<path d="M2 1295 c0 -16 2 -22 5 -12 2 9 2 23 0 30 -3 6 -5 -1 -5 -18z"/>
<path d="M2800 1309 c0 -5 5 -7 10 -4 6 3 10 8 10 11 0 2 -4 4 -10 4 -5 0 -10
-5 -10 -11z"/>
<path d="M1515 1300 c-3 -6 1 -7 9 -4 18 7 21 14 7 14 -6 0 -13 -4 -16 -10z"/>
<path d="M2060 1300 c0 -5 6 -10 14 -10 8 0 16 -6 19 -12 2 -7 8 -10 12 -6 9
8 -18 38 -34 38 -6 0 -11 -4 -11 -10z"/>
<path d="M1099 1253 c-13 -16 -12 -17 4 -4 9 7 17 15 17 17 0 8 -8 3 -21 -13z"/>
<path d="M2273 1229 c9 -6 14 -16 11 -22 -5 -8 -2 -7 7 1 12 11 12 14 -1 22
-8 5 -19 10 -25 10 -5 -1 -2 -5 8 -11z"/>
<path d="M2785 1230 c3 -5 8 -10 11 -10 2 0 4 5 4 10 0 6 -5 10 -11 10 -5 0
-7 -4 -4 -10z"/>
<path d="M2247 1205 c-4 -8 -1 -17 6 -21 7 -4 9 -4 5 1 -4 4 -3 14 3 22 7 8 8
13 1 13 -5 0 -12 -7 -15 -15z"/>
<path d="M2675 1200 c-10 -11 -16 -22 -13 -25 3 -3 13 4 23 15 10 11 16 22 13
25 -3 3 -13 -4 -23 -15z"/>
<path d="M2497 1197 c-2 -6 -1 -21 3 -32 6 -17 7 -16 12 8 5 28 -6 47 -15 24z"/>
<path d="M2765 1173 c-20 -15 -19 -15 3 -10 22 5 23 5 8 -18 -15 -22 -14 -25
2 -34 14 -9 14 -12 4 -19 -11 -8 -11 -10 1 -15 23 -9 29 4 12 30 -9 13 -11 23
-5 23 12 0 14 46 2 54 -4 2 -16 -3 -27 -11z"/>
<path d="M2719 1168 c-6 -19 -4 -50 4 -55 6 -3 7 -1 3 5 -3 5 0 13 6 16 11 5
11 7 0 12 -6 3 -10 10 -6 15 3 5 3 9 0 9 -3 0 -6 -1 -7 -2z"/>
<path d="M641 1122 c-1 -40 1 -43 22 -40 16 2 23 11 25 31 4 33 -14 36 -24 5
-7 -21 -9 -20 -15 12 l-6 35 -2 -43z"/>
<path d="M619 1113 c-1 -27 -3 -31 -6 -14 -4 19 -7 21 -14 10 -6 -10 -9 -8 -9
11 0 20 -2 22 -10 10 -9 -13 -11 -13 -20 0 -9 13 -11 13 -20 0 -5 -8 -10 -22
-10 -30 0 -8 -5 -22 -11 -30 -7 -11 -9 -3 -5 30 4 30 3 38 -3 25 -5 -11 -12
-47 -16 -81 -7 -64 -3 -69 45 -51 37 13 99 24 102 17 2 -4 13 -11 26 -14 20
-7 22 -4 22 34 l0 42 -47 -5 c-27 -3 -40 -3 -30 -1 12 4 17 16 17 45 0 50 -10
51 -11 2z"/>
<path d="M826 1113 c-33 -32 -36 -38 -20 -41 10 -1 42 9 69 23 55 27 54 33 -2
10 -53 -22 -60 -18 -28 15 41 43 27 37 -19 -7z"/>
<path d="M2370 1137 c0 -19 18 -22 40 -6 13 9 13 10 -1 6 -9 -3 -22 0 -28 6
-8 8 -11 7 -11 -6z"/>
<path d="M2745 1100 c3 -5 8 -10 11 -10 2 0 4 5 4 10 0 6 -5 10 -11 10 -5 0
-7 -4 -4 -10z"/>
<path d="M2453 1023 c9 -11 17 -25 17 -31 0 -15 32 -16 47 -1 8 8 13 5 18 -10
3 -12 11 -21 16 -21 23 0 199 -161 199 -183 0 -3 -12 0 -27 8 -45 21 -73 27
-73 16 0 -6 6 -11 13 -11 8 0 7 -3 -3 -10 -16 -10 -15 -12 15 -28 11 -6 14
-12 8 -12 -8 0 -13 -13 -13 -30 0 -20 -5 -30 -15 -30 -8 0 -15 4 -15 8 0 10
-45 32 -65 32 -10 0 -15 -10 -15 -29 0 -22 -4 -29 -17 -27 -10 2 -21 -2 -25
-8 -5 -7 -8 -4 -8 7 0 9 7 17 15 17 10 0 15 9 14 28 0 23 -1 24 -8 7 -7 -17
-9 -16 -15 13 -4 17 -5 46 -1 62 10 45 -3 86 -30 98 -21 10 -24 8 -27 -11 -2
-12 5 -41 15 -64 13 -32 17 -63 15 -123 l-3 -81 -22 20 c-13 12 -24 17 -28 11
-4 -6 -11 -8 -16 -5 -5 4 -9 1 -9 -6 0 -7 -2 -10 -5 -7 -3 3 -1 16 4 29 5 13
10 17 10 9 1 -9 4 -11 11 -4 6 6 8 18 4 28 -6 15 -8 15 -24 -4 -18 -21 -90
-29 -90 -10 0 14 -43 12 -59 -2 -11 -11 -13 -10 -9 2 8 25 -18 43 -43 30 -27
-15 -48 -6 -46 19 1 11 3 18 5 16 3 -3 18 3 33 12 25 15 29 23 29 65 0 45 -12
69 -24 49 -4 -5 0 -12 6 -15 7 -3 4 -4 -8 -1 -13 3 -31 -2 -45 -14 -19 -15
-21 -21 -11 -34 9 -10 10 -17 2 -22 -6 -3 -7 -11 -4 -17 4 -7 2 -8 -4 -4 -7 4
-12 14 -12 22 0 8 -6 14 -14 14 -17 0 -66 -63 -66 -84 0 -8 -6 -13 -13 -10 -7
2 -30 -13 -51 -35 l-38 -39 26 -71 c15 -41 26 -94 26 -122 0 -53 2 -54 60 -43
31 7 32 8 27 53 -5 44 -4 46 22 48 43 4 123 -28 174 -70 44 -36 50 -38 77 -27
16 7 34 9 40 5 5 -3 35 1 64 9 30 9 66 17 79 18 14 1 25 7 24 13 -2 11 7 11
68 1 39 -6 42 -4 102 54 35 33 68 60 73 60 6 0 9 4 6 9 -3 4 -32 12 -63 16
-82 10 -111 23 -53 24 30 1 40 4 31 10 -11 7 -10 10 5 14 17 4 17 5 1 6 -19 1
-20 30 -2 43 6 5 5 8 -2 8 -7 0 -13 4 -13 10 0 15 61 70 78 70 12 0 14 11 8
65 -9 87 -14 99 -34 83 -12 -10 -16 -10 -19 0 -3 6 -9 12 -15 12 -6 0 -18 8
-27 18 -9 10 -29 28 -45 40 l-29 22 29 1 c19 1 12 4 -21 10 -27 5 -60 7 -72 4
-12 -3 -23 0 -25 6 -2 6 -28 14 -58 17 -54 5 -55 4 -37 -15z m-217 -368 c0
-19 -3 -32 -8 -29 -5 3 -6 10 -2 15 3 5 0 16 -6 24 -6 8 -9 19 -5 25 11 17 20
2 21 -35z m65 -82 c13 -16 12 -17 -3 -4 -17 13 -22 21 -14 21 2 0 10 -8 17
-17z m-275 -49 c-3 -9 -6 -23 -6 -32 0 -15 -2 -15 -10 -2 -15 23 -12 50 6 50
11 0 14 -5 10 -16z m565 -17 c10 3 19 0 19 -6 0 -6 -9 -11 -20 -11 -23 0 -107
-37 -116 -51 -3 -5 -14 -9 -25 -9 -10 0 -19 -4 -19 -9 0 -5 -7 -11 -15 -15
-31 -11 8 31 44 49 20 10 51 25 69 34 17 8 33 22 33 31 1 12 2 12 6 -1 3 -11
11 -15 24 -12z m-212 -31 c15 -16 19 -26 11 -31 -6 -4 -14 -4 -17 -1 -4 3 0 6
8 6 8 1 1 11 -16 25 -16 14 -25 25 -19 25 6 0 21 -11 33 -24z m-332 -28 c-3
-8 -6 -5 -6 6 -1 11 2 17 5 13 3 -3 4 -12 1 -19z m283 -28 c17 -13 20 -20 10
-20 -8 0 -26 9 -40 20 -17 13 -20 20 -10 20 8 0 26 -9 40 -20z"/>
<path d="M1681 1013 c-1 -12 4 -25 9 -28 12 -7 12 2 0 30 -8 19 -9 19 -9 -2z"/>
<path d="M1565 980 c2 -14 5 -40 5 -57 0 -18 5 -33 10 -33 15 0 11 50 -6 85
-12 26 -14 27 -9 5z"/>
<path d="M1740 963 c0 -13 5 -23 10 -23 13 0 13 11 0 30 -8 12 -10 11 -10 -7z"/>
<path d="M1715 930 c-3 -5 -1 -10 4 -10 6 0 11 5 11 10 0 6 -2 10 -4 10 -3 0
-8 -4 -11 -10z"/>
<path d="M1773 911 c3 -16 1 -33 -6 -40 -9 -10 -8 -15 7 -26 16 -12 25 -11 67
11 27 13 49 26 49 29 0 7 -60 36 -93 46 -28 8 -29 7 -24 -20z"/>
<path d="M530 830 c0 -5 5 -10 10 -10 6 0 10 5 10 10 0 6 -4 10 -10 10 -5 0
-10 -4 -10 -10z"/>
<path d="M2903 821 c-12 -20 -7 -61 8 -61 5 0 9 18 9 40 0 46 -1 47 -17 21z"/>
<path d="M1601 784 c0 -11 3 -14 6 -6 3 7 2 16 -1 19 -3 4 -6 -2 -5 -13z"/>
<path d="M1621 708 c-1 -20 4 -40 9 -43 12 -7 12 19 0 55 -7 22 -8 21 -9 -12z"/>
<path d="M2260 729 c0 -5 5 -7 10 -4 6 3 10 8 10 11 0 2 -4 4 -10 4 -5 0 -10
-5 -10 -11z"/>
<path d="M1475 720 c-3 -5 -1 -10 4 -10 6 0 11 5 11 10 0 6 -2 10 -4 10 -3 0
-8 -4 -11 -10z"/>
<path d="M475 710 c-3 -5 -2 -10 4 -10 5 0 13 5 16 10 3 6 2 10 -4 10 -5 0
-13 -4 -16 -10z"/>
<path d="M1920 690 c-9 -6 -10 -10 -3 -10 6 0 15 5 18 10 8 12 4 12 -15 0z"/>
<path d="M1493 675 c0 -8 4 -12 9 -9 5 3 6 10 3 15 -9 13 -12 11 -12 -6z"/>
<path d="M1443 674 c7 -12 -20 -41 -32 -36 -3 1 -6 -2 -5 -8 1 -5 2 -26 3 -45
1 -39 31 -52 31 -14 0 11 8 34 17 50 16 28 16 30 -1 46 -10 10 -16 13 -13 7z"/>
<path d="M2768 673 c7 -3 16 -2 19 1 4 3 -2 6 -13 5 -11 0 -14 -3 -6 -6z"/>
<path d="M1765 660 c-3 -6 1 -7 9 -4 18 7 21 14 7 14 -6 0 -13 -4 -16 -10z"/>
<path d="M1950 660 c0 -5 -7 -10 -16 -10 -8 0 -12 -4 -9 -10 9 -15 19 -12 33
10 7 12 8 20 2 20 -5 0 -10 -4 -10 -10z"/>
<path d="M543 600 c-13 -5 -23 -12 -23 -15 0 -9 16 -5 36 10 22 16 19 18 -13
5z"/>
<path d="M550 560 c-9 -6 -10 -10 -3 -10 6 0 15 5 18 10 8 12 4 12 -15 0z"/>
<path d="M1320 501 c0 -14 29 -21 36 -9 4 7 3 8 -4 4 -7 -4 -12 -2 -12 3 0 6
-4 11 -10 11 -5 0 -10 -4 -10 -9z"/>
<path d="M2846 445 c-27 -25 -47 -47 -45 -50 3 -2 30 -8 62 -13 l57 -9 0 59
c0 40 -4 58 -12 58 -7 0 -35 -21 -62 -45z"/>
<path d="M2106 464 c-9 -25 -7 -64 4 -64 6 0 10 18 10 40 0 43 -4 50 -14 24z"/>
<path d="M2570 350 l-35 -7 35 -1 c19 0 44 3 55 8 l20 9 -20 -1 c-11 0 -36 -4
-55 -8z"/>
<path d="M2035 343 c-29 -5 -65 -28 -65 -43 0 -12 55 -20 93 -13 28 4 38 12
46 34 12 34 -1 39 -17 7 l-11 -23 0 23 c-1 12 -4 21 -8 21 -5 -1 -21 -4 -38
-6z"/>
<path d="M2495 345 c-5 -2 -36 -6 -68 -10 -32 -4 -56 -9 -53 -12 9 -9 156 8
156 18 0 9 -15 11 -35 4z"/>
<path d="M1700 278 c0 -8 7 -23 15 -34 14 -19 14 -19 15 2 0 12 -7 27 -15 34
-12 10 -15 10 -15 -2z"/>
<path d="M1848 251 c62 -53 160 -65 193 -24 12 14 11 15 -16 10 -17 -3 -41 -9
-55 -13 -25 -7 -25 -7 -6 14 18 21 18 21 -5 26 -13 3 -51 7 -84 10 l-60 5 33
-28z"/>
<path d="M2350 245 c0 -8 4 -15 10 -15 5 0 18 -10 30 -22 l20 -22 0 22 c0 11
-10 28 -22 36 -28 20 -38 20 -38 1z"/>
<path d="M2138 162 c-21 -4 -24 -18 -5 -25 9 -4 9 -7 -1 -15 -10 -7 -10 -11 3
-22 13 -11 15 -10 9 4 -8 20 9 21 26 1 20 -24 21 -11 2 26 -11 24 -23 34 -34
31z"/>
<path d="M2190 129 c0 -5 5 -7 10 -4 6 3 10 8 10 11 0 2 -4 4 -10 4 -5 0 -10
-5 -10 -11z"/>
</g>
</svg>
